<?xml version="1.0" encoding="UTF-8"?>
<svg id="Layer_1" data-name="Layer 1" xmlns="http://www.w3.org/2000/svg" viewBox="0 0 16 16">
  <defs>
    <style>
      .cls-1 {
        fill: #ed1c24;
      }

      .cls-2 {
        fill: #5b1019;
      }
    </style>
  </defs>
  <path class="cls-1" d="m8.88,12.63c.46-.23.91-.41,1.29-.67.96-.66,1.5-1.6,1.6-2.77.05-.57-.29-1.15-.82-1.42-.54-.28-1.21-.21-1.65.17-.21.18-.29.18-.49.01-.48-.4-1.14-.47-1.7-.17-.55.3-.87.91-.79,1.53.07.61.34,1.13.68,1.62.53.76,1.18,1.41,1.84,2.05.19.19.28.39.22.65-.04.17-.14.21-.25.1-.76-.77-1.57-1.5-2.2-2.39-.43-.61-.78-1.25-.84-2.01-.06-.83.24-1.5.95-1.95.71-.45,1.45-.45,2.19-.04.09.05.15.08.25.02.76-.44,1.53-.43,2.25.05.72.48,1.02,1.19.88,2.05-.27,1.67-1.21,2.83-2.79,3.47-.14.06-.25.07-.35-.08-.07-.1-.2-.17-.27-.23Z"/>
  <path class="cls-1" d="m7.8,13.18c-.58-.02-1.07-.15-1.54-.35-1.59-.7-2.61-2.29-2.58-4.02.01-.62.2-1.2.52-1.72.51-.83,1.06-1.65,1.6-2.46.77-1.17,1.46-2.37,1.83-3.73.04-.13.07-.27.11-.4.05-.19.18-.28.34-.24.16.04.24.19.19.38-.21.88-.5,1.74-.96,2.51-.56.96-1.18,1.88-1.77,2.82-.29.47-.6.93-.88,1.4-.96,1.64-.19,3.38.75,4.26.47.44,1.02.74,1.64.91.09.03.19.09.26.16.15.14.29.3.48.5Z"/>
  <path class="cls-2" d="m11.38,6.48c-2.4-1.28-4.77-.76-6.07,1.36-.02,0-.03-.01-.05-.02.14-.34.23-.71.41-1.02.49-.83,1.01-1.64,1.53-2.46.46-.73.92-1.46,1.14-2.3.03-.14.06-.28.11-.41.13.54.18,1.09.07,1.64-.11.53-.29,1.04-.44,1.55,1.31.06,2.44.6,3.29,1.66Z"/>
  <path class="cls-1" d="m9.17,13.76c.18.3.39.63.59.97.17.29.13.6-.1.83-.22.22-.56.26-.84.11-.33-.19-.44-.58-.25-.92.2-.35.41-.68.6-.98Z"/>
  <path class="cls-2" d="m9.16,4.4c-.29,0-.53-.19-.52-.41.02-.21.27-.38.57-.37.29.01.51.19.5.4,0,.22-.25.38-.55.38Z"/>
  <path class="cls-1" d="m5.26,7.82s.35-1.02.45-1.07l.65-1.07s1.25-1.63,5.01.81c0,0-1.63-1.03-3.54-.58,0,0-1.36.24-2.57,1.92Z"/>
  <path class="cls-2" d="m9.17,13.76l-.56.92s-.27.35-.04.74c0,0,.16.31.6.34,0,0-.31-.32-.19-1"/>
</svg>